<?xml version="1.0" encoding="utf-8"?>
<!-- Generator: Adobe Illustrator 27.2.0, SVG Export Plug-In . SVG Version: 6.00 Build 0)  -->
<svg version="1.1" id="レイヤー_1" xmlns="http://www.w3.org/2000/svg" xmlns:xlink="http://www.w3.org/1999/xlink" x="0px"
	 y="0px" viewBox="0 0 20.5 14.2" style="enable-background:new 0 0 20.5 14.2;" xml:space="preserve">
<style type="text/css">
	.st0{fill-rule:evenodd;clip-rule:evenodd;fill:#FF0000;}
</style>
<path class="st0" d="M20.1,12c-0.1,0.4-0.3,0.8-0.7,1.1c-0.3,0.3-0.7,0.5-1.1,0.7c-1.6,0.4-8,0.4-8,0.4s-6.4,0-8-0.4
	c-0.4-0.1-0.8-0.3-1.2-0.7c-0.3-0.3-0.6-0.7-0.7-1.1c-0.6-3.2-0.6-6.5,0-9.7c0.1-0.4,0.4-0.8,0.7-1.1c0.3-0.3,0.7-0.5,1.2-0.7
	c1.6-0.4,8-0.4,8-0.4s6.4,0,8,0.4c0.4,0.1,0.8,0.3,1.1,0.7c0.3,0.3,0.5,0.7,0.7,1.1C20.6,5.4,20.6,8.7,20.1,12z M8.2,4.1v6.1l5.3-3
	L8.2,4.1z"/>
</svg>
