<svg id="logo_mark" xmlns="http://www.w3.org/2000/svg" width="67" height="93.475" viewBox="0 0 67 93.475">
  <g id="グループ_6937" data-name="グループ 6937" transform="translate(-174.899 -203.029)">
    <g id="グループ_6944" data-name="グループ 6944" transform="translate(174.899 203.029)">
      <path id="パス_17176" data-name="パス 17176" d="M241,262.507a4.452,4.452,0,0,1-4.454,4.453H183.136a4.452,4.452,0,0,1-4.453-4.453V207.489a4.455,4.455,0,0,1,4.453-4.46h53.413a4.456,4.456,0,0,1,4.454,4.46Z" transform="translate(-177.728 -203.029)"/>
      <path id="パス_17177" data-name="パス 17177" d="M356.218,239.927A1.224,1.224,0,0,1,355,241.15H341.063a1.223,1.223,0,0,1-1.22-1.223v-13.94a1.221,1.221,0,0,1,1.22-1.219H355a1.221,1.221,0,0,1,1.22,1.219Z" transform="translate(-298.193 -219.279)" fill="#fff"/>
      <path id="パス_17178" data-name="パス 17178" d="M284.662,239.927a1.224,1.224,0,0,1-1.222,1.223H269.511a1.225,1.225,0,0,1-1.223-1.223v-13.94a1.223,1.223,0,0,1,1.223-1.219H283.44a1.221,1.221,0,0,1,1.222,1.219Z" transform="translate(-244.706 -219.279)" fill="#fff"/>
      <path id="パス_17179" data-name="パス 17179" d="M213.117,239.927a1.225,1.225,0,0,1-1.222,1.223H197.963a1.225,1.225,0,0,1-1.221-1.223v-13.94a1.222,1.222,0,0,1,1.221-1.219H211.9a1.223,1.223,0,0,1,1.222,1.219Z" transform="translate(-191.226 -219.279)" fill="#fff"/>
      <path id="パス_17180" data-name="パス 17180" d="M284.662,311.478a1.222,1.222,0,0,1-1.222,1.222H269.511a1.223,1.223,0,0,1-1.223-1.219V297.548a1.223,1.223,0,0,1,1.223-1.222H283.44a1.221,1.221,0,0,1,1.222,1.222Z" transform="translate(-244.706 -272.768)" fill="#ff0001"/>
      <path id="パス_17181" data-name="パス 17181" d="M284.662,383.032a1.222,1.222,0,0,1-1.222,1.224H269.511a1.224,1.224,0,0,1-1.223-1.224V369.1a1.22,1.22,0,0,1,1.223-1.22H283.44a1.218,1.218,0,0,1,1.222,1.217Z" transform="translate(-244.706 -326.254)" fill="#fff"/>
      <path id="パス_17182" data-name="パス 17182" d="M357.18,310.537a1.245,1.245,0,0,1-1.239,1.246H341.77a1.246,1.246,0,0,1-1.241-1.246v-14.17a1.245,1.245,0,0,1,1.241-1.24h14.17a1.245,1.245,0,0,1,1.239,1.24Z" transform="translate(-298.706 -271.871)" fill="#4d4d4d"/>
      <path id="パス_17183" data-name="パス 17183" d="M211.678,310.537a1.242,1.242,0,0,1-1.241,1.246H196.271a1.245,1.245,0,0,1-1.243-1.246v-14.17a1.245,1.245,0,0,1,1.243-1.24h14.165a1.242,1.242,0,0,1,1.241,1.24Z" transform="translate(-189.945 -271.871)" fill="#4d4d4d"/>
      <path id="パス_17184" data-name="パス 17184" d="M357.18,383.3a1.246,1.246,0,0,1-1.239,1.244H341.77a1.247,1.247,0,0,1-1.241-1.244V369.127a1.243,1.243,0,0,1,1.241-1.241h14.17a1.243,1.243,0,0,1,1.239,1.241Z" transform="translate(-298.706 -326.258)" fill="#4d4d4d"/>
      <path id="パス_17185" data-name="パス 17185" d="M211.678,383.3a1.243,1.243,0,0,1-1.241,1.244H196.271a1.246,1.246,0,0,1-1.243-1.244V369.127a1.243,1.243,0,0,1,1.243-1.241h14.165a1.24,1.24,0,0,1,1.241,1.241Z" transform="translate(-189.945 -326.258)" fill="#4d4d4d"/>
      <path id="パス_17186" data-name="パス 17186" d="M186.381,470.633v1.9H182.37v10.623h-3.429V472.532H174.9v-1.9Z" transform="translate(-174.899 -403.061)"/>
      <path id="パス_17187" data-name="パス 17187" d="M233.492,470.633v1.945h-5.645v3.151h5.245v1.85h-5.245v3.573h5.726v2h-9.16V470.633Z" transform="translate(-211.91 -403.061)"/>
      <path id="パス_17188" data-name="パス 17188" d="M273.1,472.36a8.49,8.49,0,0,0-2.659-.505c-2.2,0-4.089,1.34-4.089,4.49,0,3.471,2.059,4.6,3.953,4.6a7.1,7.1,0,0,0,2.8-.706l.721,1.789a10.5,10.5,0,0,1-4.208.813c-4.554,0-6.949-2.951-6.949-6.4,0-3.7,2.706-6.484,7.267-6.484a11.918,11.918,0,0,1,3.827.614Z" transform="translate(-240.508 -402.555)"/>
      <path id="パス_17189" data-name="パス 17189" d="M313.841,470.633V475.7h5.245v-5.068h3.431v12.521h-3.431V477.6h-5.245v5.552h-3.43V470.633Z" transform="translate(-276.193 -403.061)"/>
      <path id="パス_17190" data-name="パス 17190" d="M391.5,480.543a7.846,7.846,0,0,1-3.542.939c-3.017,0-5.078-1.957-5.078-4.77a4.774,4.774,0,0,1,5-4.8,7.727,7.727,0,0,1,3.616.927v-1.831a9.961,9.961,0,0,0-3.6-.753,6.534,6.534,0,0,0-6.878,6.623,6.409,6.409,0,0,0,6.767,6.256,9.212,9.212,0,0,0,3.71-.71Z" transform="translate(-328.976 -402.777)"/>
      <path id="パス_17191" data-name="パス 17191" d="M370.38,513.451a.169.169,0,0,1-.172.168h-1.951a.175.175,0,0,1-.175-.168V511.5a.173.173,0,0,1,.175-.173h1.951a.168.168,0,0,1,.172.173Z" transform="translate(-319.301 -433.48)"/>
      <path id="パス_17192" data-name="パス 17192" d="M433.425,513.451a.172.172,0,0,1-.173.168H431.3a.176.176,0,0,1-.172-.168V511.5a.174.174,0,0,1,.172-.173h1.955a.17.17,0,0,1,.173.173Z" transform="translate(-366.425 -433.48)"/>
    </g>
    <g id="グループ_6945" data-name="グループ 6945" transform="translate(187.376 288.986)">
      <path id="パス_17193" data-name="パス 17193" d="M224.311,543.441h1.58v3.3c.495-.569,2.023-2.236,2.958-3.3h1.915l-2.979,3.076,3.1,4.334h-1.926l-2.28-3.291-.785.742v2.549h-1.58Z" transform="translate(-224.311 -543.441)"/>
    </g>
    <g id="グループ_6946" data-name="グループ 6946" transform="translate(195.347 288.986)">
      <path id="パス_17194" data-name="パス 17194" d="M258.5,550.851v-2.624a.421.421,0,0,0-.065-.237l-2.56-4.548h1.818c.57,1.118,1.312,2.6,1.689,3.409.323-.774,1.129-2.344,1.688-3.409h1.678l-2.592,4.527a.428.428,0,0,0-.055.237v2.645Z" transform="translate(-255.877 -543.441)"/>
    </g>
    <g id="グループ_6947" data-name="グループ 6947" transform="translate(203.704 288.878)">
      <path id="パス_17195" data-name="パス 17195" d="M296.168,546.8a3.543,3.543,0,0,1-3.646,3.84c-2.333,0-3.55-1.688-3.55-3.818a3.532,3.532,0,0,1,3.647-3.808A3.448,3.448,0,0,1,296.168,546.8Zm-5.538-.01c0,1.451.634,2.548,1.946,2.548,1.431,0,1.936-1.194,1.936-2.516,0-1.409-.58-2.506-1.957-2.506C291.21,544.315,290.63,545.347,290.63,546.789Z" transform="translate(-288.973 -543.013)"/>
    </g>
    <g id="グループ_6948" data-name="グループ 6948" transform="translate(212.546 288.986)">
      <path id="パス_17196" data-name="パス 17196" d="M326.25,544.753h-2.258v-1.312H330.1v1.312h-2.247v6.1h-1.6Z" transform="translate(-323.992 -543.441)"/>
    </g>
    <g id="グループ_6949" data-name="グループ 6949" transform="translate(220.173 288.878)">
      <path id="パス_17197" data-name="パス 17197" d="M361.389,546.8a3.543,3.543,0,0,1-3.646,3.84c-2.333,0-3.549-1.688-3.549-3.818a3.531,3.531,0,0,1,3.645-3.808A3.448,3.448,0,0,1,361.389,546.8Zm-5.539-.01c0,1.451.634,2.548,1.946,2.548,1.431,0,1.936-1.194,1.936-2.516,0-1.409-.58-2.506-1.957-2.506C356.43,544.315,355.85,545.347,355.85,546.789Z" transform="translate(-354.194 -543.013)"/>
    </g>
  </g>
</svg>
